<svg width="36" height="36" viewBox="0 0 36 36" fill="none" xmlns="http://www.w3.org/2000/svg">
<path d="M18 2.25C14.885 2.25 11.8398 3.17372 9.24978 4.90435C6.6597 6.63499 4.64098 9.0948 3.4489 11.9727C2.25682 14.8507 1.94492 18.0175 2.55264 21.0727C3.16036 24.1279 4.6604 26.9343 6.86307 29.1369C9.06575 31.3396 11.8721 32.8397 14.9273 33.4474C17.9825 34.0551 21.1493 33.7432 24.0273 32.5511C26.9052 31.359 29.365 29.3403 31.0957 26.7502C32.8263 24.1602 33.75 21.1151 33.75 18C33.75 13.8228 32.0906 9.81677 29.1369 6.86307C26.1832 3.90937 22.1772 2.25 18 2.25ZM26.3779 19.0069L12.8779 25.7569C12.7063 25.8426 12.5157 25.883 12.3241 25.8744C12.1325 25.8657 11.9463 25.8082 11.7832 25.7073C11.6201 25.6064 11.4855 25.4655 11.3922 25.298C11.2989 25.1304 11.2499 24.9418 11.25 24.75V11.25C11.2501 11.0583 11.2992 10.8698 11.3926 10.7024C11.486 10.535 11.6206 10.3943 11.7837 10.2935C11.9468 10.1928 12.1329 10.1354 12.3244 10.1267C12.5159 10.1181 12.7064 10.1586 12.8779 10.2442L26.3779 16.9943C26.5645 17.0878 26.7214 17.2314 26.8311 17.409C26.9407 17.5866 26.9988 17.7913 26.9988 18C26.9988 18.2087 26.9407 18.4134 26.8311 18.591C26.7214 18.7686 26.5645 18.9122 26.3779 19.0057" fill="black"/>
</svg>
