<svg width="24" height="24" viewBox="0 0 24 24" fill="none" xmlns="http://www.w3.org/2000/svg">
<rect width="24" height="24" rx="4" fill="#E41F2B"/>
<path d="M0.0122986 8H23.9877V16.784H0.0122986V8Z" fill="#E41F2B"/>
<path d="M21.6135 10.1063C21.6228 10.048 21.6578 9.99911 21.6834 9.95018C21.7393 9.83834 21.7952 9.72883 21.8255 9.60767C21.8372 9.55641 21.8581 9.4935 21.8115 9.45389C21.7579 9.40729 21.6997 9.4469 21.6508 9.47486C21.518 9.55175 21.4015 9.64728 21.2873 9.74514C20.9378 10.041 20.6256 10.3766 20.339 10.7354C19.8078 11.4018 19.3394 12.1101 18.9107 12.844C18.8245 12.9908 18.7383 13.1376 18.6637 13.3053C18.729 13.3053 18.7663 13.2681 18.8035 13.2401C19.0109 13.0817 19.2113 12.9162 19.4023 12.7415C19.7122 12.4596 20.0105 12.166 20.2994 11.8608C20.5161 11.6324 20.7234 11.3971 20.9168 11.1478C21.0077 11.0313 21.0799 11.0057 21.2453 11.0359C21.2011 11.1408 21.1289 11.227 21.059 11.3132C20.6629 11.8025 20.2388 12.2662 19.7845 12.7019C19.3907 13.077 18.9713 13.4242 18.5216 13.7294C18.4377 13.7853 18.3795 13.8506 18.3375 13.9461C18.2234 14.2047 18.1162 14.468 18.03 14.7383C17.9997 14.8338 17.9741 14.9317 17.9578 15.0318C17.9461 15.0971 17.9484 15.1623 17.9647 15.2276C17.9974 15.3511 18.0812 15.393 18.1908 15.3254C18.3119 15.2532 18.4051 15.146 18.4937 15.0388C18.7266 14.7616 18.9177 14.454 19.1204 14.1558C19.393 13.7574 19.6843 13.3752 20.0361 13.0421C20.2202 12.8673 20.4229 12.7182 20.6419 12.5924C20.7607 12.5248 20.8935 12.4898 21.031 12.4875C21.1941 12.4852 21.3269 12.5411 21.4154 12.6832C21.4201 12.6926 21.4317 12.6972 21.4387 12.7019C21.4457 12.6995 21.4504 12.6995 21.4527 12.6995C21.511 12.5597 21.6251 12.5458 21.7579 12.5528C21.9001 12.5621 22.0445 12.5528 22.189 12.5551C22.2705 12.5574 22.2799 12.5714 22.2379 12.6436L21.6927 13.5663C21.3851 14.0882 21.0753 14.6078 20.784 15.139C20.7561 15.188 20.7141 15.2462 20.7654 15.2975C20.8166 15.3511 20.8749 15.3091 20.9238 15.2788C21.0566 15.1973 21.1731 15.0948 21.278 14.9783C21.476 14.7592 21.6578 14.5262 21.8302 14.2886C21.8861 14.2117 22.0003 14.1767 22.0865 14.2094C22.1144 14.221 22.1214 14.2397 22.1098 14.263C22.1004 14.2839 22.0865 14.3026 22.0725 14.3235C21.8255 14.701 21.5459 15.0528 21.2337 15.379C21.0636 15.5538 20.8842 15.7215 20.6722 15.8473C20.558 15.9149 20.4392 15.9685 20.3064 15.9918C20.0827 16.0314 19.9126 15.9196 19.894 15.6959C19.8893 15.6307 19.88 15.5677 19.873 15.5002C19.8171 15.5002 19.7961 15.5421 19.7658 15.5701C19.6027 15.7145 19.4303 15.845 19.2323 15.9429C19.1274 15.9941 19.0179 16.0128 18.9037 15.9941C18.7243 15.9638 18.5985 15.8264 18.5729 15.6376C18.5589 15.5421 18.5659 15.4466 18.5659 15.3394C18.5146 15.358 18.4937 15.3953 18.4634 15.4256C18.3026 15.5957 18.1372 15.7588 17.9368 15.88C17.8459 15.9359 17.7481 15.9732 17.6455 15.9941C17.3986 16.0431 17.1679 15.8543 17.1236 15.5794C17.0957 15.3977 17.1213 15.2229 17.1632 15.0482C17.2215 14.7989 17.31 14.5565 17.3916 14.3142C17.4009 14.2886 17.4102 14.263 17.4172 14.2373C17.4452 14.1441 17.4405 14.1418 17.3403 14.1534C17.3287 14.1558 17.317 14.1558 17.3054 14.1581C17.0351 14.1767 17.0863 14.1558 16.9512 14.3725C16.7392 14.7126 16.5108 15.0388 16.2312 15.3301C16.0169 15.5538 15.7792 15.7425 15.5066 15.8893C15.3971 15.9499 15.2783 15.9848 15.1525 15.9988C14.8985 16.0244 14.7121 15.8916 14.6562 15.6423C14.6049 15.4116 14.6399 15.1856 14.7074 14.9643C14.8193 14.6031 14.9824 14.263 15.1967 13.9507C15.4204 13.6269 15.6581 13.317 15.9493 13.0514C16.18 12.8393 16.434 12.6623 16.7252 12.5481C16.8277 12.5085 16.9326 12.4852 17.0421 12.4875C17.3263 12.4898 17.4685 12.6296 17.4848 12.9162C17.4964 13.1213 17.4591 13.317 17.3869 13.508C17.345 13.6199 17.2984 13.7317 17.2448 13.8389C17.2308 13.8645 17.2028 13.8948 17.2215 13.9251C17.2448 13.9624 17.2867 13.9344 17.3193 13.9321C17.3473 13.9321 17.3729 13.9228 17.3986 13.9181C17.5127 13.8972 17.5873 13.8342 17.6409 13.7271C17.9671 13.0793 18.3352 12.4526 18.7499 11.8561C19.2579 11.1268 19.8334 10.4558 20.5044 9.87329C20.7794 9.63563 21.0566 9.39564 21.3945 9.24187C21.5273 9.18129 21.6624 9.13702 21.8092 9.14401C21.9816 9.151 22.0608 9.23022 22.0702 9.40496C22.0772 9.53544 22.0469 9.65893 22.0026 9.78009C21.9793 9.84067 21.949 9.90125 21.921 9.9595C21.8558 10.0853 21.7719 10.1249 21.6135 10.1063ZM19.626 15.3021C19.6889 15.2998 19.7495 15.2532 19.8078 15.1996C20.0198 15.0085 20.1852 14.7756 20.3343 14.5356C20.6302 14.0649 20.9145 13.5896 21.2057 13.1166C21.229 13.077 21.2547 13.0374 21.2686 12.9931C21.2966 12.9046 21.2453 12.8463 21.1522 12.8603C21.0706 12.872 20.9937 12.9023 20.9308 12.9582C20.8166 13.063 20.6931 13.1586 20.5883 13.2727C20.4112 13.4684 20.2388 13.6688 20.0897 13.8855C19.8683 14.2047 19.661 14.5332 19.5258 14.9014C19.4979 14.9783 19.4722 15.0575 19.4676 15.1367C19.4606 15.2439 19.5142 15.3045 19.626 15.3021ZM16.2266 13.6339C16.1683 13.6851 16.1311 13.755 16.0868 13.8179C15.8818 14.1115 15.6954 14.4144 15.5695 14.7523C15.5346 14.8431 15.5113 14.9387 15.5043 15.0342C15.488 15.2415 15.6301 15.3487 15.8235 15.2742C15.919 15.2369 16.0006 15.1786 16.0751 15.1111C16.3547 14.8594 16.5691 14.5542 16.7578 14.2327C16.8184 14.1301 16.8161 14.1278 16.7042 14.0696C16.5481 13.988 16.4083 13.8878 16.3058 13.7387C16.2825 13.7038 16.2685 13.6618 16.2266 13.6339ZM17.2401 13.0887V13.0421C17.2285 12.844 17.1096 12.7694 16.9232 12.8393C16.8114 12.8813 16.7182 12.9489 16.6413 13.0374C16.5644 13.1259 16.5085 13.2261 16.5015 13.3496C16.4829 13.6362 16.6903 13.797 16.8906 13.8832C16.9419 13.9041 16.9698 13.8762 16.9908 13.8342C17.0537 13.7154 17.119 13.5943 17.1586 13.4638C17.1959 13.3403 17.2448 13.2191 17.2401 13.0887ZM10.8141 10.9567C10.849 10.8519 10.9282 10.8426 11.0214 10.8472C11.1682 10.8519 11.3173 10.8495 11.4641 10.8495C11.6039 10.8495 11.6109 10.8612 11.5364 10.9847C11.3756 11.255 11.2125 11.5229 11.0494 11.7932C10.7372 12.3128 10.425 12.83 10.1127 13.3496C10.0918 13.3869 10.0708 13.4242 10.0661 13.4684C10.0568 13.557 10.1034 13.5966 10.185 13.564C10.2269 13.5477 10.2665 13.5197 10.3061 13.4941C10.5321 13.3403 10.7139 13.1376 10.8886 12.9279C10.9725 12.8277 11.054 12.7228 11.1379 12.6203C11.1915 12.5528 11.3336 12.5155 11.4105 12.5481C11.4315 12.5574 11.4385 12.5761 11.4268 12.5947C11.4105 12.6203 11.3919 12.646 11.3733 12.6716C11.1426 12.9838 10.9073 13.2937 10.637 13.571C10.3947 13.8203 10.143 14.0672 9.82149 14.2187C9.71897 14.2676 9.61179 14.3072 9.49762 14.2909C9.3322 14.2676 9.22036 14.1441 9.20638 13.9647C9.20172 13.9158 9.20638 13.8645 9.20638 13.804C9.15046 13.8226 9.12949 13.8622 9.0992 13.8902C8.96406 14.0206 8.81494 14.1301 8.64485 14.2117C8.53068 14.2653 8.41186 14.2909 8.28371 14.2863C8.0577 14.2769 7.9179 14.1395 7.90625 13.9111C7.89926 13.79 7.91557 13.6711 7.93887 13.5523C7.94586 13.5197 7.9645 13.4871 7.94586 13.4428C7.8247 13.5523 7.71752 13.6688 7.59171 13.7667C7.40298 13.9158 7.21192 14.0626 6.99057 14.1651C6.79019 14.256 6.58516 14.3212 6.35915 14.2839C6.08421 14.2373 5.84889 14.016 5.8186 13.7084C5.79297 13.4381 5.85588 13.1842 5.9514 12.9372C6.03295 12.7228 6.13314 12.5178 6.26828 12.2965C6.14945 12.3244 6.05858 12.3454 5.96538 12.3664C5.92577 12.3757 5.91179 12.4083 5.89549 12.4386C5.65783 12.8557 5.36192 13.2284 5.0334 13.5756C4.8703 13.748 4.69788 13.9088 4.50449 14.0463C4.36702 14.1418 4.22256 14.2233 4.05947 14.2676C3.69832 14.3678 3.40241 14.1604 3.37445 13.7853C3.35814 13.564 3.39309 13.3496 3.46066 13.1422C3.61444 12.6809 3.86142 12.2708 4.16431 11.891C4.37867 11.6231 4.61633 11.3785 4.88894 11.1711C5.09397 11.015 5.31299 10.8822 5.55997 10.8053C5.66482 10.7727 5.772 10.7517 5.88151 10.768C6.13081 10.8006 6.28226 10.966 6.29624 11.22C6.31022 11.4786 6.23566 11.7186 6.13547 11.9516C6.11916 11.9889 6.08887 12.0239 6.09819 12.0774C6.1611 12.0821 6.21236 12.0565 6.26362 12.0308C6.46167 11.9353 6.63176 11.8025 6.79718 11.6604C6.98591 11.4973 7.15134 11.3132 7.34706 11.1594C7.53346 11.0126 7.72917 10.8798 7.95751 10.8053C8.1043 10.7563 8.25575 10.754 8.40487 10.789C8.65184 10.8472 8.78698 11.0989 8.7264 11.3785C8.6798 11.5928 8.57495 11.7769 8.42584 11.9353C8.37691 11.9866 8.32099 12.0285 8.25342 12.0495C8.07401 12.1054 7.93887 11.9842 7.97848 11.8025C8.02741 11.5718 8.16255 11.4204 8.39555 11.3691C8.4538 11.3552 8.5004 11.3458 8.49806 11.2713C8.49574 11.199 8.45613 11.1431 8.3839 11.1315C8.31866 11.1198 8.25342 11.1315 8.19051 11.1571C8.05071 11.213 7.9412 11.3132 7.83169 11.4134C7.33075 11.8747 6.98125 12.4363 6.73428 13.0677C6.68768 13.1842 6.65506 13.303 6.66438 13.4312C6.68069 13.6968 6.84145 13.8156 7.09775 13.741C7.28881 13.6851 7.44259 13.5663 7.58705 13.4358C7.9645 13.0933 8.28371 12.6972 8.5866 12.2871C8.83824 11.947 9.10619 11.6184 9.41607 11.3295C9.63975 11.1198 9.87275 10.9194 10.171 10.8146C10.2292 10.7936 10.2898 10.7796 10.3527 10.7727C10.4925 10.7563 10.6137 10.7936 10.7162 10.8892C10.7442 10.9078 10.7628 10.9404 10.8141 10.9567ZM10.5042 11.1268C10.4622 11.1245 10.4156 11.1431 10.369 11.1641C10.2479 11.22 10.1687 11.3202 10.0801 11.4134C9.66538 11.8584 9.31589 12.3524 9.01532 12.879C8.91979 13.0467 8.83125 13.2215 8.80096 13.4172C8.77999 13.5593 8.85921 13.6245 8.99202 13.5733C9.10386 13.5313 9.1924 13.4568 9.26929 13.3682C9.45568 13.1539 9.61878 12.9232 9.77256 12.6856C10.0638 12.2312 10.3387 11.7676 10.6044 11.2992C10.6719 11.1874 10.637 11.1268 10.5042 11.1268ZM5.00311 11.8934C4.99612 11.8957 4.9868 11.898 4.98447 11.9027C4.7538 12.2242 4.53711 12.5551 4.38566 12.9209C4.32974 13.056 4.28547 13.1982 4.29013 13.3496C4.29479 13.515 4.39498 13.5919 4.56041 13.557C4.6839 13.5313 4.77943 13.4614 4.8703 13.3799C5.1429 13.1329 5.3526 12.8347 5.54599 12.5271C5.56929 12.4922 5.59259 12.4549 5.61356 12.4176C5.65317 12.3454 5.65084 12.3361 5.57861 12.3081C5.56696 12.3035 5.55764 12.3011 5.54599 12.2965C5.34328 12.2172 5.1662 12.1054 5.04272 11.919C5.03107 11.9074 5.02175 11.8957 5.00311 11.8934ZM5.27338 11.6883C5.27105 11.7396 5.28736 11.7909 5.31765 11.8375C5.41551 11.9866 5.56463 12.0565 5.73239 12.0891C5.78365 12.0984 5.81161 12.0728 5.83258 12.0285C5.93742 11.8258 6.00732 11.6114 6.0213 11.3854C6.03295 11.2037 5.94907 11.0895 5.77666 11.1105C5.53667 11.1408 5.27338 11.439 5.27338 11.6883Z" fill="white"/>
<path d="M16.6646 9.42834C16.5831 9.37475 16.5085 9.38873 16.4363 9.39805C16.2545 9.42135 16.0961 9.50057 15.9377 9.58911C15.5369 9.81045 15.1851 10.097 14.8542 10.4093C14.4232 10.8147 14.0248 11.248 13.6776 11.728C13.2955 12.2523 12.953 12.8021 12.6967 13.4009C12.5336 13.7854 12.4124 14.1815 12.3588 14.5962C12.3332 14.8036 12.3588 15.0086 12.48 15.188C12.6151 15.3907 12.8505 15.4839 13.0904 15.435C13.2209 15.4071 13.3421 15.3535 13.4539 15.2836C13.7615 15.0878 14.0178 14.8339 14.2368 14.545C14.4418 14.2747 14.6142 13.9858 14.7307 13.6642C14.7867 13.5058 14.8263 13.345 14.8379 13.1773C14.8403 13.154 14.8403 13.1307 14.8379 13.1074C14.8239 12.8697 14.6678 12.7882 14.4628 12.9163C14.309 13.0118 14.1972 13.154 14.0993 13.3031C13.9805 13.4872 13.8989 13.6899 13.85 13.9019C13.836 13.9601 13.8104 13.9951 13.7545 14.023C13.4539 14.1675 13.1953 14.3702 12.9576 14.6009C12.946 14.6125 12.9343 14.6218 12.9227 14.6312C12.918 14.6358 12.9087 14.6335 12.9017 14.6358C12.8761 14.6195 12.8854 14.5939 12.8877 14.5729C12.946 14.1652 13.0602 13.7761 13.2815 13.4242C13.5052 13.0678 13.7988 12.7858 14.1785 12.5994C14.3486 12.5156 14.5257 12.462 14.7191 12.5086C14.8682 12.5458 14.9731 12.6367 15.0313 12.7812C15.0942 12.9373 15.0872 13.1004 15.0732 13.2635C15.0476 13.5734 14.9218 13.8483 14.782 14.1186C14.6399 14.3958 14.4721 14.6568 14.2741 14.8968C13.9409 15.3045 13.5518 15.647 13.0718 15.8707C12.7992 15.9989 12.5079 16.0478 12.2097 15.9779C11.8253 15.8847 11.5829 15.6307 11.4571 15.2673C11.3127 14.8525 11.3336 14.4308 11.4688 14.0207C11.6482 13.4685 11.9045 12.9513 12.1957 12.448C12.4194 12.0635 12.6687 11.7001 12.9506 11.3576C13.3957 10.8147 13.8966 10.33 14.4675 9.91996C14.8356 9.65668 15.22 9.42601 15.6371 9.25126C15.905 9.13942 16.1846 9.08117 16.4759 9.0835C16.632 9.08583 16.7765 9.1301 16.8976 9.22563C16.9489 9.26524 16.9885 9.26757 17.0444 9.2466C17.3007 9.14641 17.5686 9.09981 17.8413 9.09049C18.2304 9.07651 18.5962 9.16971 18.9363 9.35378C19.3115 9.55649 19.6866 9.76385 20.0594 9.96889C20.0734 9.97588 20.0874 9.98287 20.099 9.99219C20.1619 10.0341 20.1619 10.0411 20.1083 10.097C19.9615 10.2462 19.8124 10.3929 19.668 10.5467C19.619 10.598 19.5771 10.5933 19.5258 10.5607L18.9946 10.2462C18.7616 10.1064 18.5286 9.96423 18.2956 9.82909C18.0393 9.67997 17.762 9.57979 17.4708 9.51921C17.3753 9.49824 17.2774 9.49591 17.1819 9.51688C17.1376 9.5262 17.1073 9.54484 17.1073 9.60076C17.098 10.0761 16.9302 10.5048 16.7019 10.9102C16.5272 11.2201 16.3011 11.4904 16.0006 11.6931C15.8701 11.7793 15.7303 11.8469 15.5812 11.8888C15.3202 11.9657 15.1129 11.8166 15.0965 11.544C15.0872 11.3739 15.1268 11.2131 15.1897 11.057C15.3645 10.6236 15.6557 10.2718 15.9889 9.95258C16.1753 9.7755 16.378 9.6194 16.5947 9.48193C16.611 9.46329 16.6297 9.45164 16.6646 9.42834ZM16.844 9.81045C16.8487 9.62872 16.844 9.62173 16.7182 9.69162C16.4806 9.82443 16.2709 9.99685 16.0775 10.1902C15.7932 10.4722 15.5625 10.7914 15.3925 11.1525C15.3505 11.2434 15.3156 11.3389 15.3132 11.4414C15.3109 11.6045 15.4297 11.6907 15.5835 11.6418C15.7652 11.5859 15.9144 11.4764 16.0542 11.3482C16.2942 11.1246 16.4736 10.8589 16.618 10.57C16.7438 10.3207 16.8254 10.0528 16.844 9.81045ZM10.7744 16.1433C10.6556 16.0781 10.5554 16.0198 10.4506 15.9686C9.99624 15.7496 9.52092 15.6214 9.01066 15.647C8.74271 15.661 8.50039 15.7379 8.30001 15.922C8.26973 15.9499 8.24177 15.9826 8.21381 16.0152C8.13226 16.113 8.12993 16.1154 8.06003 16.0128C7.9412 15.8404 7.78742 15.7076 7.60335 15.6051C7.33774 15.456 7.04882 15.3907 6.74592 15.3651C6.1844 15.3185 5.63919 15.414 5.09863 15.5445C4.50682 15.689 3.915 15.8334 3.31387 15.9383C3.03427 15.9872 2.75235 16.0222 2.46809 15.9756C1.96482 15.8917 1.53843 15.6797 1.24486 15.2486C1.11671 15.0622 1.06312 14.8479 1.02584 14.6288C0.939629 14.1279 1.0072 13.6386 1.16098 13.161C1.3497 12.5715 1.64561 12.0379 2.00443 11.5346C2.32596 11.0826 2.69876 10.6772 3.10417 10.3044C3.59813 9.85006 4.14334 9.46562 4.77477 9.22097C5.03339 9.12078 5.29901 9.05554 5.58094 9.05554C5.998 9.05787 6.23799 9.31883 6.17974 9.72657C6.14479 9.96889 6.03994 10.1856 5.86286 10.3603C5.79762 10.4232 5.72306 10.4698 5.62987 10.4861C5.50871 10.5071 5.40619 10.4372 5.38056 10.3161C5.34095 10.1273 5.44114 9.91064 5.61589 9.81278C5.68811 9.77317 5.76267 9.74055 5.84422 9.73123C5.90014 9.72424 5.92111 9.68929 5.92577 9.63571C5.93742 9.50057 5.86286 9.41203 5.72539 9.40271C5.62754 9.39572 5.53201 9.41436 5.43881 9.44465C5.08465 9.56348 4.77477 9.76385 4.49284 10.0062C3.84744 10.563 3.30921 11.2154 2.84089 11.9237C2.531 12.3921 2.29101 12.8977 2.1419 13.4406C2.0487 13.7807 1.9788 14.1279 2.00443 14.4867C2.0254 14.7849 2.13025 15.0436 2.35625 15.2486C2.4844 15.3628 2.63352 15.435 2.79429 15.4816C2.93875 15.5235 3.08786 15.5515 3.24164 15.5585C3.72628 15.5841 4.20159 15.5119 4.67225 15.4024C5.28503 15.2579 5.89548 15.1135 6.50827 14.969C6.95562 14.8618 7.40764 14.7873 7.86664 14.7966C8.65417 14.8129 9.38112 15.0226 10.0382 15.4653C10.2712 15.6214 10.4809 15.8055 10.6789 16.0035C10.7162 16.0361 10.7535 16.0711 10.7744 16.1433ZM23.5963 9.12311C23.6079 9.16272 23.5893 9.18369 23.5753 9.20699C23.2328 9.77317 22.7808 10.2275 22.1983 10.5467C21.8209 10.7541 21.4224 10.8986 20.989 10.9382C20.8096 10.9545 20.6326 10.9452 20.4555 10.9079C20.3669 10.8892 20.36 10.8729 20.4135 10.8054C20.5487 10.6353 20.6908 10.4698 20.8399 10.3114C20.8772 10.2718 20.9215 10.2741 20.9681 10.2741C21.1382 10.2741 21.3083 10.2811 21.4807 10.2578C21.8721 10.2042 22.2286 10.0598 22.5734 9.87569C22.9276 9.68463 23.2421 9.43999 23.5357 9.16505C23.5474 9.1534 23.559 9.14408 23.5707 9.13476C23.5753 9.12777 23.5823 9.12777 23.5963 9.12311ZM12.4544 10.8473C12.5429 10.8473 12.6338 10.845 12.7223 10.8473C12.7806 10.8496 12.7922 10.8683 12.7596 10.9195C12.6571 11.0896 12.5522 11.255 12.4474 11.4251C12.4217 11.4671 12.3891 11.4834 12.3425 11.481C12.1678 11.481 11.993 11.4834 11.8183 11.4787C11.7391 11.4787 11.7274 11.4577 11.7693 11.3878C11.8672 11.2247 11.9674 11.064 12.0676 10.9009C12.0932 10.8589 12.1258 10.8426 12.1748 10.845C12.268 10.8473 12.3612 10.8473 12.4544 10.8473Z" fill="white"/>
</svg>
