<svg width="100" height="100" viewBox="0 0 100 100" fill="none" xmlns="http://www.w3.org/2000/svg">
<path d="M33.8542 8.33331C31.5059 8.33331 29.2538 9.26616 27.5933 10.9266C25.9328 12.5871 25 14.8392 25 17.1875V82.8125C25 85.1608 25.9328 87.4128 27.5933 89.0733C29.2538 90.7338 31.5059 91.6667 33.8542 91.6667H66.1458C68.4941 91.6667 70.7462 90.7338 72.4067 89.0733C74.0672 87.4128 75 85.1608 75 82.8125V17.1875C75 14.8392 74.0672 12.5871 72.4067 10.9266C70.7462 9.26616 68.4941 8.33331 66.1458 8.33331H33.8542ZM30.2083 17.1875C30.2083 15.175 31.8417 13.5416 33.8542 13.5416H66.1458C68.1604 13.5416 69.7917 15.175 69.7917 17.1875V82.8125C69.7917 83.7794 69.4076 84.7068 68.7238 85.3905C68.0401 86.0742 67.1128 86.4583 66.1458 86.4583H33.8542C32.8872 86.4583 31.9599 86.0742 31.2762 85.3905C30.5924 84.7068 30.2083 83.7794 30.2083 82.8125V17.1875ZM44.2708 73.9583C43.5802 73.9583 42.9178 74.2327 42.4294 74.7211C41.941 75.2094 41.6667 75.8718 41.6667 76.5625C41.6667 77.2532 41.941 77.9155 42.4294 78.4039C42.9178 78.8923 43.5802 79.1666 44.2708 79.1666H55.7292C56.4198 79.1666 57.0822 78.8923 57.5706 78.4039C58.059 77.9155 58.3333 77.2532 58.3333 76.5625C58.3333 75.8718 58.059 75.2094 57.5706 74.7211C57.0822 74.2327 56.4198 73.9583 55.7292 73.9583H44.2708Z" fill="black"/>
</svg>
