<svg width="622" height="244" viewBox="0 0 622 244" fill="none" xmlns="http://www.w3.org/2000/svg">
<g opacity="0.1">
<rect x="1.25" y="0.5" width="619.5" height="243" stroke="#838383"/>
<line x1="61.9917" y1="2.22049e-08" x2="61.9917" y2="244" stroke="#838383"/>
<line x1="124.602" y1="2.22049e-08" x2="124.602" y2="244" stroke="#838383"/>
<line x1="187.213" y1="2.22049e-08" x2="187.213" y2="244" stroke="#838383"/>
<line x1="249.824" y1="2.22049e-08" x2="249.824" y2="244" stroke="#838383"/>
<line x1="312.434" y1="2.22049e-08" x2="312.434" y2="244" stroke="#838383"/>
<line x1="375.045" y1="2.22049e-08" x2="375.045" y2="244" stroke="#838383"/>
<line x1="437.656" y1="2.22049e-08" x2="437.656" y2="244" stroke="#838383"/>
<line x1="500.267" y1="2.22049e-08" x2="500.267" y2="244" stroke="#838383"/>
<line x1="562.877" y1="2.22049e-08" x2="562.877" y2="244" stroke="#838383"/>
<line x1="621.25" y1="63.1615" x2="0.75" y2="63.1614" stroke="#838383"/>
<line x1="621.25" y1="124.874" x2="0.75" y2="124.873" stroke="#838383"/>
<line x1="621.25" y1="186.586" x2="0.75" y2="186.586" stroke="#838383"/>
</g>
</svg>
