<svg width="624" height="219" viewBox="0 0 624 219" fill="none" xmlns="http://www.w3.org/2000/svg">
<path opacity="0.2" d="M10.9449 202.314L1.75 218H621.75V18.0052L604.017 33.6911L594.822 66.7435L591.538 61.7016H579.716L571.178 33.6911L561.326 39.2932L552.131 26.9686L544.25 31.4503L539.653 23.0471L526.517 15.7644L515.352 39.2932L496.305 10.7225L488.424 26.9686L483.826 15.7644L474.631 4L467.407 15.7644L456.898 39.2932L450.331 43.7749L439.822 56.0995L427.343 72.9058L420.775 92.5131L414.864 113.801L401.072 109.88L395.161 98.6754L391.877 80.7487L385.309 72.9058L376.771 92.5131L372.831 107.079L364.949 92.5131L355.754 87.4712L347.873 98.6754L336.708 72.9058V46.0157H328.169C325.98 51.0576 321.602 61.5895 321.602 63.3822C321.602 65.1749 317.661 37.2391 315.691 23.0471L306.496 33.6911L297.301 26.9686L292.047 4L283.508 31.4503L274.314 46.0157L269.716 26.9686L258.551 48.8168H250.669L246.729 72.9058L237.534 87.4712H227.682L217.174 63.3822L210.606 37.0524L206.665 87.4712V113.801H198.784L190.903 92.5131L184.992 98.6754L182.364 116.042H173.826L161.347 126.126L158.72 140.691L151.496 142.932L144.271 175.984L138.36 166.461L133.106 136.77L120.627 126.126L110.775 142.932H103.551L96.3263 153.576L83.8475 126.126L76.6229 98.6754L66.1144 105.958L57.5763 142.932L50.3517 169.262L36.5593 182.147L30.6483 169.262L22.7669 178.785L10.9449 202.314Z" fill="url(#paint0_linear_4_300)"/>
<path d="M1.75 218L10.9449 202.314L22.7669 178.785L30.6483 169.262L36.5593 182.147L50.3517 169.262L57.5763 142.932L66.1144 105.958L76.6229 98.6754L83.8475 126.126L96.3263 153.576L103.551 142.932H110.775L120.627 126.126L133.106 136.77L138.36 166.461L144.271 175.984L151.496 142.932L158.72 140.691L161.347 126.126L173.826 116.042H182.364L184.992 98.6754L190.903 92.5131L198.784 113.801H206.665V87.4712L210.606 37.0524L217.174 63.3822L227.682 87.4712H237.534L246.729 72.9058L250.669 48.8168H258.551L269.716 26.9686L274.314 46.0157L283.508 31.4503L292.047 4L297.301 26.9686L306.496 33.6911L315.691 23.0471C317.661 37.2391 321.602 65.1749 321.602 63.3822C321.602 61.5895 325.98 51.0576 328.169 46.0157H336.708V72.9058L347.873 98.6754L355.754 87.4712L364.949 92.5131L372.831 107.079L376.771 92.5131L385.309 72.9058L391.877 80.7487L395.161 98.6754L401.072 109.88L414.864 113.801L420.775 92.5131L427.343 72.9058L439.822 56.0995L450.33 43.7749L456.898 39.2932L467.407 15.7644L474.631 4L483.826 15.7644L488.424 26.9686L496.305 10.7225L515.352 39.2932L526.517 15.7644L539.653 23.0471L544.25 31.4503L552.131 26.9686L561.326 39.2932L571.178 33.6911L579.716 61.7016H591.538L594.822 66.7435L604.017 33.6911L621.75 18.0052" stroke="#6425FE" stroke-opacity="0.5" stroke-width="2"/>
<line opacity="0.5" x1="623.25" y1="44.5" x2="2.75" y2="44.4999" stroke="#2C2C2C" stroke-dasharray="2 2"/>
<defs>
<linearGradient id="paint0_linear_4_300" x1="311.75" y1="4" x2="311.75" y2="218" gradientUnits="userSpaceOnUse">
<stop stop-color="#6425FE" stop-opacity="0.68"/>
<stop offset="1" stop-color="#6425FE" stop-opacity="0"/>
</linearGradient>
</defs>
</svg>
