<svg width="120" height="120" viewBox="0 0 120 120" fill="none" xmlns="http://www.w3.org/2000/svg">
<path d="M8.84961 97.31V92.31H111.15V97.31H8.84961ZM23.0746 87.31C20.7746 87.31 18.8546 86.5383 17.3146 84.995C15.7713 83.455 14.9996 81.5333 14.9996 79.23V30.38C14.9996 28.08 15.7713 26.16 17.3146 24.62C18.8579 23.08 20.7779 22.31 23.0746 22.31H96.9246C99.2246 22.31 101.145 23.08 102.685 24.62C104.228 26.1633 105 28.085 105 30.385V79.235C105 81.535 104.23 83.455 102.69 84.995C101.15 86.535 99.2279 87.3067 96.9246 87.31H23.0746ZM23.0746 82.31H96.9246C97.6913 82.31 98.3963 81.9883 99.0396 81.345C99.6796 80.705 99.9996 80 99.9996 79.23V30.38C99.9996 29.6133 99.6796 28.91 99.0396 28.27C98.3963 27.63 97.6913 27.31 96.9246 27.31H23.0746C22.3079 27.31 21.6029 27.63 20.9596 28.27C20.3196 28.91 19.9996 29.615 19.9996 30.385V79.235C19.9996 80.0017 20.3196 80.705 20.9596 81.345C21.6029 81.9883 22.3079 82.31 23.0746 82.31Z" fill="black"/>
</svg>
