<svg width="25" height="25" viewBox="0 0 25 25" fill="none" xmlns="http://www.w3.org/2000/svg">
<path d="M5.37336 14.097C5.37336 14.7592 5.51865 15.2676 5.7087 15.5752C5.95781 15.9781 6.32933 16.1491 6.70812 16.1491C7.1966 16.1491 7.64353 16.0279 8.50477 14.8367C9.19493 13.8819 10.0078 12.5418 10.5548 11.7016L11.4812 10.2782C12.1247 9.2897 12.8696 8.19083 13.7236 7.44597C14.4211 6.83798 15.173 6.50024 15.9299 6.50024C17.2007 6.50024 18.4112 7.23668 19.3376 8.61786C20.3515 10.1305 20.8436 12.0358 20.8436 14.0019C20.8436 15.1708 20.6132 16.0297 20.2211 16.7082C19.8424 17.3644 19.1042 18.02 17.8623 18.02V16.1488C18.9257 16.1488 19.191 15.1717 19.191 14.0535C19.191 12.4601 18.8195 10.6917 18.001 9.42817C17.4203 8.53191 16.6676 7.98429 15.8394 7.98429C14.9438 7.98429 14.223 8.65992 13.413 9.8642C12.9823 10.5042 12.5403 11.284 12.0439 12.1639L11.4974 13.132C10.3999 15.0786 10.1218 15.5217 9.57291 16.2531C8.61098 17.5341 7.78948 18.0197 6.70812 18.0197C5.42523 18.0197 4.61404 17.4642 4.11161 16.6271C3.70151 15.945 3.50006 15.0499 3.50006 14.03L5.37336 14.097Z" fill="white"/>
<path d="M4.97717 8.74969C5.83602 7.42582 7.07546 6.5 8.49703 6.5C9.32028 6.5 10.1389 6.74366 10.9934 7.44152C11.9282 8.20432 12.9246 9.46113 14.1676 11.5316L14.6133 12.2744C15.6893 14.0669 16.3014 14.9891 16.6597 15.424C17.1205 15.9824 17.4432 16.1489 17.8624 16.1489C18.9257 16.1489 19.191 15.1718 19.191 14.0536L20.8436 14.0018C20.8436 15.1707 20.6132 16.0295 20.2212 16.708C19.8425 17.3642 19.1042 18.0198 17.8624 18.0198C17.0903 18.0198 16.4064 17.8522 15.6501 17.1386C15.0689 16.591 14.3889 15.6182 13.866 14.7436L12.3105 12.1454C11.5302 10.8414 10.814 9.86919 10.3999 9.42887C9.95413 8.95535 9.38116 8.38361 8.46681 8.38361C7.72682 8.38361 7.09834 8.9029 6.57245 9.69723L4.97717 8.74969Z" fill="white"/>
<path d="M8.46672 8.38361C7.72672 8.38361 7.09825 8.9029 6.57235 9.69723C5.82865 10.8196 5.37366 12.4915 5.37366 14.097C5.37366 14.7593 5.51896 15.2677 5.709 15.5752L4.11155 16.6271C3.70145 15.945 3.5 15.0499 3.5 14.0301C3.5 12.1755 4.00904 10.2425 4.97708 8.74969C5.83592 7.42582 7.07536 6.5 8.49694 6.5L8.46672 8.38361Z" fill="white"/>
</svg>
