<svg width="25" height="25" viewBox="0 0 25 25" fill="none" xmlns="http://www.w3.org/2000/svg">
<g clip-path="url(#clip0_4_11)">
<path d="M24.3325 20.6124C24.3325 20.87 24.1434 21.0428 23.9196 21.0428V21.0412C23.6894 21.0428 23.5038 20.8699 23.5038 20.6125C23.5038 20.3551 23.6894 20.1828 23.9196 20.1828C24.1435 20.1827 24.3325 20.3551 24.3325 20.6124ZM24.5 20.6124C24.5 20.259 24.2255 20.0539 23.9196 20.0539C23.6115 20.0539 23.337 20.259 23.337 20.6124C23.337 20.9656 23.6116 21.1716 23.9196 21.1716C24.2255 21.1716 24.5 20.9656 24.5 20.6124ZM23.8233 20.6597H23.8854L24.0294 20.9126H24.1875L24.028 20.649C24.1104 20.6432 24.1782 20.604 24.1782 20.493C24.1782 20.3551 24.0831 20.3108 23.9222 20.3108H23.6892V20.9126H23.8231L23.8233 20.6597ZM23.8233 20.5578V20.413H23.9164C23.9671 20.413 24.0361 20.4171 24.0361 20.4789C24.0361 20.5461 24.0004 20.5578 23.9407 20.5578H23.8233ZM20.5911 17.5339L21.3148 19.5137H19.845L20.5911 17.5339ZM19.8161 16.7631L18.1483 20.9886H19.3259L19.5897 20.2419H21.5634L21.8131 20.9886H23.0915L21.4113 16.7625L19.8161 16.7631ZM16.4678 20.9902H17.6626V16.7618L16.4676 16.7615L16.4678 20.9902ZM8.17323 16.7615L7.17638 20.1129L6.22146 16.7618L4.93228 16.7615L6.2961 20.9902H8.0174L9.39221 16.7615H8.17323ZM13.0028 17.6823H13.5164C14.2613 17.6823 14.7432 18.0167 14.7432 18.8847C14.7432 19.7529 14.2613 20.0874 13.5164 20.0874H13.0028V17.6823ZM11.818 16.7615V20.9902H13.755C14.787 20.9902 15.124 20.8187 15.4884 20.4339C15.7458 20.1637 15.9123 19.5706 15.9123 18.9224C15.9123 18.3278 15.7714 17.7978 15.5258 17.4676C15.0833 16.877 14.4458 16.7615 13.4943 16.7615H11.818ZM0.5 16.7556V20.9902H1.70492V17.7749L2.63853 17.7751C2.94766 17.7751 3.16803 17.8522 3.31689 18.0112C3.5057 18.2123 3.5828 18.5369 3.5828 19.1308V20.9902H4.75036V18.6506C4.75036 16.9808 3.68605 16.7556 2.64468 16.7556H0.5ZM9.89507 16.7615L9.89555 20.9902H11.0898V16.7615H9.89507Z" fill="#2C2C2C"/>
<path d="M3.71114 8.34166C3.71114 8.34166 5.24786 6.07434 8.31618 5.83977V5.01719C4.91762 5.29013 1.97461 8.16855 1.97461 8.16855C1.97461 8.16855 3.64148 12.9871 8.31618 13.4284V12.5541C4.88567 12.1225 3.71114 8.34166 3.71114 8.34166ZM8.31618 10.8152V11.616C5.72347 11.1537 5.0038 8.45863 5.0038 8.45863C5.0038 8.45863 6.24867 7.07958 8.31618 6.85594V7.73459C8.31461 7.73459 8.31351 7.73411 8.31222 7.73411C7.22708 7.60389 6.37937 8.6176 6.37937 8.6176C6.37937 8.6176 6.8545 10.3241 8.31618 10.8152ZM8.31618 3.5V5.01719C8.41594 5.00954 8.51571 5.00306 8.61602 4.99964C12.4798 4.86942 14.9973 8.16855 14.9973 8.16855C14.9973 8.16855 12.1059 11.6845 9.09348 11.6845C8.8174 11.6845 8.55894 11.6589 8.31618 11.6159V12.5541C8.53089 12.5816 8.74713 12.5956 8.9636 12.5958C11.7668 12.5958 13.7941 11.1642 15.757 9.46982C16.0825 9.73047 17.4149 10.3646 17.6888 10.6421C15.8224 12.2048 11.4726 13.4644 9.00656 13.4644C8.76885 13.4644 8.54057 13.45 8.31618 13.4284V14.7467H18.9711V3.5H8.31618ZM8.31618 6.85594V5.83977C8.41492 5.83287 8.51441 5.82762 8.61602 5.82441C11.3945 5.73714 13.2173 8.21205 13.2173 8.21205C13.2173 8.21205 11.2485 10.9464 9.13746 10.9464C8.83365 10.9464 8.56126 10.8976 8.31611 10.8151V7.73452C9.39777 7.86522 9.61547 8.34302 10.2658 9.42707L11.7121 8.20754C11.7121 8.20754 10.6564 6.82289 8.87661 6.82289C8.68308 6.82282 8.49796 6.83648 8.31618 6.85594Z" fill="#2C2C2C"/>
</g>
<defs>
<clipPath id="clip0_4_11">
<rect width="24" height="24" fill="white" transform="translate(0.5 0.5)"/>
</clipPath>
</defs>
</svg>
