<svg width="40" height="40" viewBox="0 0 40 40" fill="none" xmlns="http://www.w3.org/2000/svg">
<path d="M36.1953 30.3985L31.0094 5.7422C30.9423 5.41977 30.8122 5.11376 30.6265 4.84177C30.4408 4.56977 30.2032 4.33714 29.9273 4.15725C29.6515 3.97736 29.3428 3.85374 29.019 3.79351C28.6952 3.73328 28.3627 3.73761 28.0406 3.80626L20.7266 5.37814C20.0796 5.5198 19.5148 5.91116 19.1548 6.46711C18.7949 7.02307 18.6691 7.69864 18.8047 8.34689L23.9906 33.0031C24.1062 33.5657 24.4119 34.0713 24.8564 34.4349C25.3009 34.7986 25.857 34.9981 26.4313 35C26.6088 34.9998 26.7858 34.9809 26.9594 34.9438L34.2734 33.3719C34.9212 33.2299 35.4866 32.8378 35.8465 32.2808C36.2065 31.7239 36.3319 31.0474 36.1953 30.3985ZM21.25 7.83595V7.82189L28.5625 6.25939L29.0828 8.73908L21.7703 10.3125L21.25 7.83595ZM22.2844 12.7531L29.6 11.1828L30.1219 13.6672L22.8125 15.2391L22.2844 12.7531ZM23.3219 17.686L30.6375 16.1141L32.7156 25.9953L25.4 27.5672L23.3219 17.686ZM33.75 30.9281L26.4375 32.4906L25.9172 30.011L33.2297 28.4375L33.75 30.9141V30.9281ZM16.25 5.00001H8.75C8.08696 5.00001 7.45107 5.26341 6.98223 5.73225C6.51339 6.20109 6.25 6.83697 6.25 7.50001V32.5C6.25 33.1631 6.51339 33.7989 6.98223 34.2678C7.45107 34.7366 8.08696 35 8.75 35H16.25C16.913 35 17.5489 34.7366 18.0178 34.2678C18.4866 33.7989 18.75 33.1631 18.75 32.5V7.50001C18.75 6.83697 18.4866 6.20109 18.0178 5.73225C17.5489 5.26341 16.913 5.00001 16.25 5.00001ZM8.75 7.50001H16.25V10H8.75V7.50001ZM8.75 12.5H16.25V27.5H8.75V12.5ZM16.25 32.5H8.75V30H16.25V32.5Z" fill="black"/>
</svg>
