<svg width="24" height="24" viewBox="0 0 24 24" fill="none" xmlns="http://www.w3.org/2000/svg">
<path d="M11.5201 22.6643C11.715 22.5668 16.783 20.3739 18.3912 19.0582C20.048 17.6937 20.9252 15.7445 20.9252 13.4054V2.44093L20.779 2.3922C16.7343 0.199306 11.715 0.345499 11.4714 0.345499C11.2764 0.345499 6.25715 0.199306 2.21248 2.3922L2.11502 2.44093V13.4541C2.11502 15.7932 2.99218 17.7425 4.64903 19.1069C6.25715 20.4227 11.3252 22.6156 11.5201 22.6643Z" fill="#341B14"/>
<path d="M11.52 22.9077C11.52 22.9077 6.15961 20.5686 4.50275 19.2529C2.74844 17.7909 1.92001 15.793 1.92001 13.5026V2.09956C6.15961 -0.1908 11.52 0.004124 11.52 0.004124C11.52 0.004124 16.8804 -0.1908 21.12 2.09956V13.4539C21.12 15.7442 20.2916 17.7422 18.5373 19.2041C16.8804 20.5686 11.52 22.9077 11.52 22.9077ZM2.69971 13.5026C2.69971 15.6468 3.4794 17.4011 4.99006 18.6194C6.35453 19.7402 10.3992 21.5432 11.52 22.0305C12.6408 21.5432 16.7342 19.6914 18.05 18.6194C19.5606 17.4011 20.3403 15.598 20.3403 13.5026V2.29448C14.6875 1.75844 7.96265 2.05082 2.69971 6.92392V13.5026Z" fill="#FFB406"/>
<path d="M16.9293 11.8947C17.6603 12.3333 17.9527 12.6257 18.0014 13.1617C18.0014 13.7465 17.6115 14.0876 16.978 14.0876C16.442 14.0876 15.8085 13.7952 15.3699 13.4054V14.9648C15.906 15.2572 16.5395 15.5008 17.2217 15.5008C18.8785 15.5008 19.6582 14.3313 19.6582 13.2592C19.707 12.2846 19.4146 11.5049 18.0014 10.6765C17.3679 10.2866 16.8806 10.043 16.8806 9.45818C16.8806 8.87341 17.4166 8.62976 17.8552 8.62976C18.44 8.62976 19.0247 8.97087 19.3659 9.31199V7.85006C19.0735 7.60641 18.44 7.26529 17.5141 7.31402C16.3933 7.36275 15.2237 8.14245 15.2237 9.50691C15.2725 10.4328 15.5648 11.115 16.9293 11.8947ZM11.1791 15.4034C11.3252 15.4521 11.5689 15.5008 11.9587 15.5008C13.8593 15.5008 14.9313 13.7952 14.9313 11.3587C14.9313 8.87341 13.8105 7.36275 11.8126 7.36275C10.8867 7.36275 10.1557 7.55768 9.5222 7.94752V18.9607H11.1791V15.4034ZM11.1791 8.77595C11.3252 8.72722 11.5689 8.62976 11.7638 8.62976C12.7384 8.62976 13.1283 9.40945 13.1283 11.31C13.1283 13.1617 12.641 14.0389 11.6664 14.0389C11.4227 14.0389 11.2278 13.9902 11.1303 13.9414V8.77595H11.1791ZM6.0623 15.5008C7.08565 15.5008 7.96281 15.2572 8.59631 14.8186V7.46021H6.89073V13.844C6.6958 13.9902 6.45215 14.0389 6.11103 14.0389C5.33134 14.0389 5.23387 13.3079 5.23387 12.8694V7.46021H3.52829V12.7719C3.52829 14.5749 4.40545 15.5008 6.0623 15.5008ZM17.4166 22.0795V23.2003H17.6115V22.7617H17.6603L17.9527 23.2003H18.1963C18.1963 23.2003 17.9039 22.7617 17.8552 22.713C18.0014 22.6643 18.0988 22.5668 18.0988 22.4206C18.0988 22.2744 18.0014 22.0795 17.709 22.0795H17.4166ZM17.709 22.2257C17.8552 22.2257 17.9039 22.3232 17.9039 22.3719C17.9039 22.4694 17.8552 22.5668 17.6603 22.5668H17.6115V22.2257H17.709Z" fill="#FFB406"/>
<path d="M18.4887 22.6155C18.4887 23.0054 18.1476 23.3465 17.7578 23.3465C17.3679 23.3465 17.0268 23.0054 17.0268 22.6155C17.0268 22.2257 17.3679 21.8846 17.7578 21.8846C18.1964 21.8846 18.4887 22.2257 18.4887 22.6155ZM17.7578 21.6896C17.2705 21.6896 16.8319 22.0795 16.8319 22.6155C16.8319 23.1028 17.2217 23.5414 17.7578 23.5414C18.2451 23.5414 18.6837 23.1516 18.6837 22.6155C18.6837 22.1282 18.2451 21.6896 17.7578 21.6896Z" fill="#FFB406"/>
</svg>
