<svg width="32" height="33" viewBox="0 0 32 33" fill="none" xmlns="http://www.w3.org/2000/svg">
<path d="M7.51894 19.6218H5.74499L5.2023 18.3129H2.24581L1.75138 19.6218H0.00665283L2.67219 13.0108H4.58181L7.51894 19.6218ZM3.65129 14.5905L2.68198 17.1592H4.71763L3.65129 14.5905ZM13.9629 13.0108H15.3975V19.6218H13.7494V15.4924L11.9659 17.5666H11.7139L9.93051 15.4924V19.6217H8.28245V13.0108H9.71704L11.8398 15.4632L13.9629 13.0108ZM19.5732 13.0108C21.9868 13.0108 23.2273 14.5131 23.2273 16.3258C23.2273 18.2256 22.0255 19.6218 19.389 19.6218H16.6554V13.0108H19.5732ZM18.3033 18.4101H19.3791C21.0366 18.4101 21.5311 17.2855 21.5311 16.316C21.5311 15.1817 20.9203 14.2223 19.3597 14.2223H18.3033V18.4101H18.3033ZM26.506 14.5783L24.428 12.5H31.9929V20.0651L29.9149 17.987V14.5783H26.506ZM26.5036 14.9948L24.3642 17.1341V20.1288H27.3584L29.4977 17.9895H26.5036V14.9948Z" fill="#2C2C2C"/>
</svg>
