<svg width="32" height="32" viewBox="0 0 32 32" fill="none" xmlns="http://www.w3.org/2000/svg">
<path fill-rule="evenodd" clip-rule="evenodd" d="M20.4001 5.10933C21.5201 3.75733 22.2721 1.87333 22.0668 0C20.4561 0.0653333 18.5068 1.07333 17.3534 2.42533C16.3174 3.62267 15.4108 5.53867 15.6561 7.37467C17.4508 7.51467 19.2854 6.46267 20.4028 5.10933M24.4294 17C24.4748 21.8427 28.6774 23.4547 28.7228 23.476C28.6894 23.5893 28.0534 25.772 26.5094 28.0267C25.1761 29.976 23.7921 31.9187 21.6108 31.9587C19.4681 31.9973 18.7801 30.688 16.3294 30.688C13.8814 30.688 13.1161 31.9187 11.0868 31.9973C8.98278 32.0773 7.38011 29.8893 6.03344 27.948C3.28678 23.9747 1.18678 16.7213 4.00678 11.8253C5.40544 9.39333 7.90944 7.85333 10.6268 7.81467C12.6934 7.77467 14.6441 9.20533 15.9068 9.20533C17.1708 9.20533 19.5414 7.48533 22.0334 7.73733C23.0774 7.78133 26.0054 8.15867 27.8868 10.912C27.7348 11.0053 24.3921 12.952 24.4281 17" fill="black"/>
</svg>
