<svg width="23" height="24" viewBox="0 0 23 24" fill="none" xmlns="http://www.w3.org/2000/svg">
<path d="M20.0345 19.3764C10.3193 24 4.28997 20.1316 0.430403 17.782C0.191574 17.6339 -0.214351 17.8166 0.137845 18.2211C1.42366 19.7802 5.63755 23.5381 11.1379 23.5381C16.642 23.5381 19.9165 20.5347 20.3261 20.0108C20.7329 19.4914 20.4456 19.2048 20.0344 19.3764H20.0345ZM22.7629 17.8696C22.502 17.5299 21.1765 17.4665 20.3423 17.569C19.5069 17.6685 18.2528 18.1791 18.3618 18.4857C18.4178 18.6006 18.532 18.5491 19.1059 18.4975C19.6814 18.44 21.2937 18.2366 21.6296 18.6757C21.9672 19.1179 21.1154 21.2245 20.9599 21.5642C20.8096 21.9039 21.0173 21.9915 21.2996 21.7653C21.578 21.5391 22.0821 20.9533 22.4203 20.1244C22.7563 19.2909 22.9612 18.1283 22.7629 17.8696Z" fill="#FF9900"/>
<path fill-rule="evenodd" clip-rule="evenodd" d="M13.5022 9.94199C13.5022 11.1551 13.5329 12.1669 12.9197 13.2442C12.4248 14.1202 11.6408 14.6589 10.7649 14.6589C9.56916 14.6589 8.8728 13.7479 8.8728 12.4034C8.8728 9.74922 11.2509 9.2675 13.5022 9.2675V9.94199ZM16.6424 17.5321C16.4366 17.716 16.1387 17.7292 15.9067 17.6065C14.8731 16.7481 14.6891 16.3495 14.1197 15.5305C12.4117 17.2737 11.2028 17.7948 8.98672 17.7948C6.36764 17.7948 4.32666 16.1787 4.32666 12.9421C4.32666 10.415 5.69759 8.69374 7.64644 7.85291C9.33707 7.10826 11.6978 6.97689 13.5022 6.77111V6.36814C13.5022 5.62793 13.5591 4.75201 13.1256 4.11261C12.7445 3.53885 12.0175 3.30233 11.378 3.30233C10.1911 3.30233 9.1312 3.91108 8.8728 5.17243C8.82018 5.4528 8.6144 5.72874 8.33412 5.74185L5.31207 5.41782C5.0581 5.36076 4.77782 5.15498 4.84789 4.76512C5.54425 1.10376 8.85083 0 11.8115 0C13.3269 0 15.3065 0.402971 16.5022 1.55049C18.0176 2.96509 17.873 4.85273 17.873 6.90682V11.7596C17.873 13.218 18.4775 13.8574 19.0468 14.6458C19.2482 14.9261 19.2921 15.2634 19.038 15.4735C18.403 16.0034 17.273 16.9889 16.6511 17.5408L16.6423 17.5321" fill="#2C2C2C"/>
<path d="M20.0345 19.3764C10.3193 24 4.28997 20.1316 0.430403 17.782C0.191574 17.6339 -0.214351 17.8166 0.137845 18.2211C1.42366 19.7802 5.63755 23.5381 11.1379 23.5381C16.642 23.5381 19.9165 20.5347 20.3261 20.0108C20.7329 19.4914 20.4456 19.2048 20.0344 19.3764H20.0345ZM22.7629 17.8696C22.502 17.5299 21.1765 17.4665 20.3423 17.569C19.5069 17.6685 18.2528 18.1791 18.3618 18.4857C18.4178 18.6006 18.532 18.5491 19.1059 18.4975C19.6814 18.44 21.2937 18.2366 21.6296 18.6757C21.9672 19.1179 21.1154 21.2245 20.9599 21.5642C20.8096 21.9039 21.0173 21.9915 21.2996 21.7653C21.578 21.5391 22.0821 20.9533 22.4203 20.1244C22.7563 19.2909 22.9612 18.1283 22.7629 17.8696Z" fill="#FF9900"/>
<path fill-rule="evenodd" clip-rule="evenodd" d="M13.5022 9.94199C13.5022 11.1551 13.5329 12.1669 12.9197 13.2442C12.4248 14.1202 11.6408 14.6589 10.7649 14.6589C9.56916 14.6589 8.8728 13.7479 8.8728 12.4034C8.8728 9.74922 11.2509 9.2675 13.5022 9.2675V9.94199ZM16.6424 17.5321C16.4366 17.716 16.1387 17.7292 15.9067 17.6065C14.8731 16.7481 14.6891 16.3495 14.1197 15.5305C12.4117 17.2737 11.2028 17.7948 8.98672 17.7948C6.36764 17.7948 4.32666 16.1787 4.32666 12.9421C4.32666 10.415 5.69759 8.69374 7.64644 7.85291C9.33707 7.10826 11.6978 6.97689 13.5022 6.77111V6.36814C13.5022 5.62793 13.5591 4.75201 13.1256 4.11261C12.7445 3.53885 12.0175 3.30233 11.378 3.30233C10.1911 3.30233 9.1312 3.91108 8.8728 5.17243C8.82018 5.4528 8.6144 5.72874 8.33412 5.74185L5.31207 5.41782C5.0581 5.36076 4.77782 5.15498 4.84789 4.76512C5.54425 1.10376 8.85083 0 11.8115 0C13.3269 0 15.3065 0.402971 16.5022 1.55049C18.0176 2.96509 17.873 4.85273 17.873 6.90682V11.7596C17.873 13.218 18.4775 13.8574 19.0468 14.6458C19.2482 14.9261 19.2921 15.2634 19.038 15.4735C18.403 16.0034 17.273 16.9889 16.6511 17.5408L16.6423 17.5321" fill="#2C2C2C"/>
</svg>
