<svg width="24" height="24" viewBox="0 0 24 24" fill="none" xmlns="http://www.w3.org/2000/svg">
<g clip-path="url(#clip0_4_410)">
<path d="M23.5271 21.4193V21.4673H23.5719C23.5803 21.4674 23.5885 21.4653 23.5959 21.4611C23.5988 21.4591 23.6011 21.4563 23.6027 21.4531C23.6043 21.4499 23.605 21.4464 23.6049 21.4428C23.605 21.4393 23.6043 21.4358 23.6027 21.4327C23.6011 21.4295 23.5988 21.4269 23.5959 21.4249C23.5886 21.4206 23.5803 21.4184 23.5719 21.4188H23.5271V21.4193ZM23.5723 21.3853C23.5915 21.3841 23.6105 21.3896 23.6261 21.4009C23.6323 21.406 23.6373 21.4125 23.6406 21.4199C23.6438 21.4273 23.6453 21.4353 23.6449 21.4434C23.6452 21.4503 23.644 21.4572 23.6414 21.4637C23.6388 21.4701 23.6349 21.4759 23.6298 21.4807C23.6178 21.4911 23.6027 21.4974 23.5869 21.4986L23.6469 21.567H23.6007L23.5455 21.4991H23.5276V21.567H23.4889V21.3854H23.5729L23.5723 21.3853ZM23.5603 21.6296C23.5806 21.6298 23.6007 21.6257 23.6193 21.6176C23.6372 21.6099 23.6535 21.5989 23.6673 21.5851C23.6811 21.5713 23.6921 21.555 23.6998 21.5371C23.7155 21.4991 23.7155 21.4563 23.6998 21.4183C23.692 21.4004 23.681 21.3841 23.6673 21.3703C23.6535 21.3565 23.6372 21.3455 23.6193 21.3378C23.6006 21.3301 23.5805 21.3263 23.5603 21.3265C23.5398 21.3263 23.5194 21.3301 23.5003 21.3378C23.482 21.3454 23.4654 21.3564 23.4513 21.3703C23.43 21.3921 23.4157 21.4196 23.41 21.4495C23.4043 21.4794 23.4075 21.5102 23.4192 21.5383C23.4265 21.5563 23.4374 21.5726 23.4513 21.5863C23.4654 21.6002 23.482 21.6112 23.5003 21.6188C23.5193 21.6269 23.5397 21.631 23.5603 21.6308M23.5603 21.2828C23.6131 21.2828 23.6637 21.3035 23.7013 21.3404C23.7195 21.3582 23.7339 21.3793 23.7438 21.4027C23.7541 21.4267 23.7594 21.4525 23.7594 21.4786C23.7594 21.5047 23.7541 21.5305 23.7438 21.5545C23.7337 21.5777 23.7193 21.5989 23.7013 21.6168C23.6829 21.6344 23.6615 21.6487 23.6381 21.6588C23.6135 21.6692 23.5871 21.6745 23.5603 21.6744C23.5333 21.6746 23.5065 21.6693 23.4816 21.6588C23.4579 21.6489 23.4363 21.6347 23.4179 21.6168C23.4 21.5982 23.3858 21.5764 23.376 21.5525C23.3658 21.5285 23.3605 21.5027 23.3605 21.4766C23.3605 21.4505 23.3658 21.4247 23.376 21.4007C23.3859 21.3773 23.4004 21.3561 23.4185 21.3384C23.4367 21.3202 23.4584 21.3059 23.4822 21.2964C23.5071 21.2859 23.5339 21.2806 23.5609 21.2808M5.18594 20.5817C5.18594 20.2355 5.41274 19.9511 5.78342 19.9511C6.13766 19.9511 6.3767 20.2232 6.3767 20.5817C6.3767 20.9401 6.13766 21.2123 5.78342 21.2123C5.41274 21.2123 5.18594 20.9279 5.18594 20.5817ZM6.7805 20.5817V19.5965H6.35222V19.8365C6.21638 19.6591 6.01034 19.5479 5.73014 19.5479C5.17814 19.5479 4.74494 19.9808 4.74494 20.5821C4.74494 21.1835 5.1779 21.6164 5.73014 21.6164C6.01022 21.6164 6.21638 21.5051 6.35222 21.3278V21.567H6.78002V20.5817H6.7805ZM21.2515 20.5817C21.2515 20.2355 21.4783 19.9511 21.8491 19.9511C22.2037 19.9511 22.4424 20.2232 22.4424 20.5817C22.4424 20.9401 22.2037 21.2123 21.8491 21.2123C21.4785 21.2123 21.2515 20.9279 21.2515 20.5817ZM22.8466 20.5817V18.8057H22.4179V19.8365C22.2821 19.6591 22.0761 19.5479 21.7959 19.5479C21.2439 19.5479 20.8107 19.9808 20.8107 20.5821C20.8107 21.1835 21.2436 21.6164 21.7959 21.6164C22.0761 21.6164 22.2821 21.5051 22.4179 21.3278V21.567H22.8466V20.5817ZM12.096 19.9308C12.372 19.9308 12.5493 20.1038 12.5945 20.4085H11.5726C11.6183 20.1241 11.791 19.9308 12.0961 19.9308M12.1047 19.5468C11.5275 19.5468 11.1237 19.9668 11.1237 20.5811C11.1237 21.2073 11.5437 21.6153 12.1333 21.6153C12.43 21.6153 12.7017 21.5413 12.9407 21.3393L12.7308 21.0219C12.5657 21.1539 12.3555 21.228 12.1578 21.228C11.8818 21.228 11.6305 21.1002 11.5687 20.7456H13.0312C13.0354 20.6923 13.0397 20.6385 13.0397 20.5809C13.0354 19.9669 12.6557 19.5467 12.1044 19.5467M17.2752 20.5809C17.2752 20.2347 17.502 19.9503 17.8727 19.9503C18.2269 19.9503 18.466 20.2225 18.466 20.5809C18.466 20.9394 18.2269 21.2115 17.8727 21.2115C17.502 21.2115 17.2751 20.9271 17.2751 20.5809M18.8697 20.5809V19.5965H18.4416V19.8365C18.3053 19.6591 18.0997 19.5479 17.8195 19.5479C17.2675 19.5479 16.8343 19.9808 16.8343 20.5821C16.8343 21.1835 17.2673 21.6164 17.8195 21.6164C18.0997 21.6164 18.3053 21.5051 18.4416 21.3278V21.567H18.8698V20.5817L18.8697 20.5809ZM14.8566 20.5809C14.8566 21.1784 15.2725 21.6152 15.9073 21.6152C16.204 21.6152 16.4016 21.5492 16.6153 21.3804L16.4097 21.0342C16.2489 21.1497 16.08 21.2115 15.8937 21.2115C15.5518 21.2073 15.3004 20.9601 15.3004 20.5809C15.3004 20.2017 15.5518 19.9547 15.8937 19.9503C16.0795 19.9503 16.2484 20.0121 16.4097 20.1277L16.6153 19.7815C16.4013 19.6127 16.2036 19.5467 15.9073 19.5467C15.2725 19.5467 14.8566 19.9833 14.8566 20.5809ZM20.3778 19.5467C20.1307 19.5467 19.9698 19.6622 19.8586 19.8353V19.5965H19.4341V21.5659H19.8629V20.4619C19.8629 20.136 20.0029 19.9549 20.2829 19.9549C20.3746 19.9536 20.4656 19.9704 20.5507 20.0045L20.6827 19.6008C20.5879 19.5635 20.4643 19.547 20.3776 19.547M8.8979 19.7531C8.69186 19.6172 8.40794 19.547 8.09474 19.547C7.59578 19.547 7.27454 19.7862 7.27454 20.1775C7.27454 20.4986 7.5137 20.6967 7.9541 20.7585L8.15642 20.7873C8.39126 20.8203 8.50214 20.8821 8.50214 20.9934C8.50214 21.1457 8.34614 21.2325 8.05322 21.2325C7.75658 21.2325 7.5425 21.1377 7.39814 21.0265L7.1969 21.3605C7.43174 21.5335 7.72838 21.6161 8.04962 21.6161C8.61842 21.6161 8.94806 21.3482 8.94806 20.9732C8.94806 20.627 8.68862 20.4459 8.25998 20.3841L8.05814 20.3549C7.87274 20.3309 7.72418 20.2935 7.72418 20.1615C7.72418 20.0175 7.86422 19.9309 8.09918 19.9309C8.35058 19.9309 8.59394 20.0257 8.71322 20.0997L8.89862 19.7535L8.8979 19.7531ZM14.424 19.5474C14.1769 19.5474 14.016 19.6629 13.9053 19.836V19.5965H13.4808V21.5659H13.9091V20.4619C13.9091 20.136 14.0491 19.9549 14.3291 19.9549C14.4208 19.9536 14.5118 19.9704 14.5969 20.0045L14.7289 19.6008C14.6341 19.5635 14.5105 19.547 14.4238 19.547M10.7693 19.5965H10.069V18.999H9.63602V19.5965H9.23654V19.9879H9.63602V20.8863C9.63602 21.3433 9.81338 21.6155 10.32 21.6155C10.5059 21.6155 10.72 21.5579 10.8558 21.4632L10.7321 21.0965C10.6043 21.1705 10.4643 21.2078 10.3529 21.2078C10.1388 21.2078 10.069 21.0758 10.069 20.8782V19.9883H10.7693V19.5965ZM4.36622 21.5664V20.3304C4.36622 19.8649 4.06958 19.5517 3.59138 19.5475C3.33998 19.5433 3.08066 19.6215 2.8991 19.8979C2.76326 19.6795 2.54918 19.5475 2.24822 19.5475C2.03786 19.5475 1.8323 19.6093 1.67138 19.8399V19.5965H1.24274V21.5659H1.67474V20.4739C1.67474 20.132 1.86434 19.9503 2.15714 19.9503C2.44154 19.9503 2.58542 20.1357 2.58542 20.4696V21.5657H3.01838V20.4737C3.01838 20.1318 3.21602 19.9501 3.5003 19.9501C3.79274 19.9501 3.9323 20.1355 3.9323 20.4693V21.5654L4.36622 21.5664Z" fill="#2C2C2C"/>
<path d="M23.7713 15.0148V14.7268H23.6963L23.6095 14.9244L23.5232 14.7268H23.448V15.0148H23.5013V14.7978L23.5824 14.985H23.6376L23.7187 14.7974V15.0148H23.7715H23.7713ZM23.2955 15.0148V14.7761H23.3915V14.7275H23.1462V14.7761H23.2422V15.0148H23.295H23.2955Z" fill="#F79410"/>
<path d="M15.2469 16.2502H8.75653V4.58618H15.247L15.2469 16.2502Z" fill="#FF5F00"/>
<path d="M9.168 10.418C9.168 8.05201 10.2758 5.94433 12.001 4.58605C10.6951 3.55638 9.08002 2.99755 7.41708 3.00001C3.32064 3.00001 0 6.32113 0 10.418C0 14.515 3.32064 17.8361 7.41708 17.8361C9.08007 17.8386 10.6952 17.2797 12.0011 16.25C10.2761 14.892 9.168 12.7842 9.168 10.418Z" fill="#EB001B"/>
<path d="M24.003 10.4183C24.003 14.5152 20.6824 17.8363 16.5859 17.8363C14.9228 17.8388 13.3075 17.28 12.0013 16.2503C13.7269 14.892 14.8348 12.7845 14.8348 10.4183C14.8348 8.05213 13.7269 5.94457 12.0013 4.58629C13.3074 3.55666 14.9227 2.99784 16.5858 3.00025C20.6823 3.00025 24.0029 6.32137 24.0029 10.4183" fill="#F79E1B"/>
</g>
<defs>
<clipPath id="clip0_4_410">
<rect width="24" height="24" fill="white"/>
</clipPath>
</defs>
</svg>
