<svg width="32" height="32" viewBox="0 0 32 32" fill="none" xmlns="http://www.w3.org/2000/svg">
<path d="M26.2132 12.8533L25.7332 11.6L28.2132 10.6667C26.9865 7.84 24.7998 5.57334 22.0532 4.18667L20.9865 6.56L19.7598 6L20.8265 3.60001C19.3332 3.01334 17.7065 2.66667 15.9998 2.66667C14.5865 2.66667 13.2265 2.96001 11.9465 3.33334L12.8532 5.78667L11.5998 6.26667L10.6665 3.78667C7.83984 5.01334 5.57317 7.20001 4.1865 9.94667L6.55984 11.0133L5.99984 12.24L3.59984 11.1733C3.01317 12.6667 2.6665 14.2933 2.6665 16C2.6665 17.4133 2.95984 18.7733 3.33317 20.0533L5.7865 19.1467L6.2665 20.4L3.7865 21.3333C5.01317 24.16 7.19984 26.4267 9.9465 27.8133L11.0132 25.44L12.2398 26L11.1732 28.4C12.6665 28.9867 14.2932 29.3333 15.9998 29.3333C17.4132 29.3333 18.7732 29.04 20.0532 28.6667L19.1465 26.2133L20.3998 25.7333L21.3332 28.2133C24.1598 26.9867 26.4265 24.8 27.8132 22.0533L25.4398 20.9867L25.9998 19.76L28.3998 20.8267C28.9865 19.3333 29.3332 17.7067 29.3332 16C29.3332 14.5867 29.0398 13.2267 28.6665 11.9467L26.2132 12.8533ZM19.0665 23.3867C14.9865 25.0667 10.2932 23.1467 8.61317 19.0667C6.93317 14.9867 8.85317 10.2933 12.9332 8.61334C17.0132 6.93334 21.7065 8.85334 23.3865 12.9333C23.7915 13.9031 24.001 14.9433 24.0029 15.9942C24.0048 17.0451 23.7992 18.0861 23.3978 19.0573C22.9965 20.0286 22.4072 20.911 21.6639 21.654C20.9206 22.3969 20.0379 22.9857 19.0665 23.3867Z" fill="black"/>
</svg>
