<svg width="25" height="24" viewBox="0 0 25 24" fill="none" xmlns="http://www.w3.org/2000/svg">
<g clip-path="url(#clip0_4_131)">
<path d="M19.113 22.2921V23.7598H19.5837V22.7826H21.2967V23.7598H21.767V22.2947L19.113 22.2921ZM19.5312 21.8174H21.341C21.5924 21.7674 21.7793 21.5456 21.832 21.331H19.0403C19.0924 21.5456 19.2821 21.7674 19.5312 21.8174ZM17.6875 23.7607C17.9248 23.6601 18.0525 23.4861 18.1014 23.2825H15.9904L15.9917 21.3322L15.5185 21.3335V23.7607H17.6875ZM11.9995 21.8108H13.6709C13.9229 21.7376 14.1345 21.5456 14.1861 21.3328H11.531V22.7672H13.7041V23.2706L11.9995 23.2719C11.7324 23.3464 11.5059 23.5258 11.3929 23.7627L11.531 23.7601H14.171V22.2903H11.9995V21.8108ZM7.87337 21.8154H9.68256C9.93427 21.7653 10.1213 21.5436 10.1738 21.3288H7.38214C7.43425 21.5436 7.62407 21.7653 7.87337 21.8154ZM7.87337 22.7747H9.68256C9.93427 22.7251 10.1213 22.5033 10.1738 22.2883H7.38214C7.43425 22.5033 7.62407 22.7251 7.87337 22.7747ZM7.87337 23.7605H9.68256C9.93427 23.7104 10.1213 23.4887 10.1738 23.274H7.38214C7.43425 23.4887 7.62407 23.7104 7.87337 23.7605ZM3.16663 21.3347C3.22101 21.5468 3.40467 21.7637 3.65665 21.818H4.41821L4.45706 21.8333V23.755H4.93262V21.8333L4.97582 21.818H5.73805C5.99284 21.7523 6.17255 21.5468 6.226 21.3347V21.33H3.16663V21.3347Z" fill="#E82127"/>
<path d="M12.5003 16.533L14.8765 3.16928C17.1414 3.16928 17.8558 3.41764 17.9589 4.43138C17.9589 4.43138 19.4783 3.86486 20.2446 2.71428C17.2542 1.3286 14.2496 1.26611 14.2496 1.26611L12.4963 3.40157L12.5003 3.4013L10.747 1.26578C10.747 1.26578 7.7423 1.32834 4.75232 2.71402C5.51797 3.8646 7.03794 4.43111 7.03794 4.43111C7.14169 3.41731 7.85523 3.16894 10.1049 3.16734L12.5003 16.533Z" fill="#E82127"/>
<path d="M12.4993 0.649302C14.9166 0.630816 17.6835 1.02325 20.5159 2.25776C20.8945 1.57637 20.9918 1.27523 20.9918 1.27523C17.8955 0.050234 14.9959 -0.368993 12.499 -0.379509C10.0021 -0.368993 7.10265 0.0503009 4.00677 1.27523C4.00677 1.27523 4.14489 1.64616 4.48233 2.25776C7.31424 1.02325 10.0816 0.630816 12.499 0.649302H12.4993Z" fill="#E82127"/>
</g>
<defs>
<clipPath id="clip0_4_131">
<rect width="24" height="24" fill="white" transform="translate(0.5)"/>
</clipPath>
</defs>
</svg>
