<svg width="119" height="46" viewBox="0 0 119 46" fill="none" xmlns="http://www.w3.org/2000/svg">
<path d="M110.667 32.2967L111.3 31.5225L110.667 32.2967ZM107.667 34.2046C107.667 37.1501 110.054 39.5379 113 39.5379C115.946 39.5379 118.333 37.1501 118.333 34.2046C118.333 31.259 115.946 28.8712 113 28.8712C110.054 28.8712 107.667 31.259 107.667 34.2046ZM0.0511889 1.31584L2.38452 8.32529L4.28214 7.6936L1.94881 0.684156L0.0511889 1.31584ZM2.38452 8.32529C3.54826 11.8212 5.3145 17.1302 7.38247 21.6458C8.41506 23.9005 9.54334 26.0037 10.7357 27.5976C11.8891 29.1392 13.2709 30.4356 14.8687 30.6472L15.1313 28.6645C14.3958 28.5671 13.4442 27.8793 12.3372 26.3995C11.2692 24.9719 10.2099 23.0164 9.20086 20.813C7.1855 16.4123 5.45174 11.2071 4.28214 7.6936L2.38452 8.32529ZM14.8687 30.6472C16.5232 30.8663 17.992 29.8824 19.2034 28.6837C20.4483 27.4518 21.6636 25.75 22.8293 24.0203C24.0181 22.2562 25.1544 20.4655 26.3037 18.9134C27.4635 17.347 28.5289 16.1789 29.5078 15.602L28.4922 13.879C27.1377 14.6774 25.8698 16.1386 24.6963 17.7232C23.5123 19.3222 22.3152 21.2044 21.1707 22.9025C20.0031 24.6351 18.8851 26.185 17.7966 27.262C16.6747 28.3722 15.8101 28.7544 15.1313 28.6645L14.8687 30.6472ZM29.5078 15.602C30.406 15.0726 31.2705 15.0245 32.1866 15.3268C33.1515 15.6452 34.1921 16.3624 35.3157 17.4168C37.5852 19.5466 39.8278 22.6779 42.226 25.6096L43.774 24.3433C41.5055 21.5701 39.0815 18.208 36.6843 15.9585C35.4746 14.8232 34.1819 13.8792 32.8134 13.4276C31.3962 12.9599 29.9274 13.0331 28.4922 13.879L29.5078 15.602ZM42.226 25.6096C46.9509 31.3857 51.674 35.5615 56.3447 39.6135L57.6553 38.1028C52.9927 34.0578 48.3824 29.977 43.774 24.3433L42.226 25.6096ZM56.3447 39.6135C58.6526 41.6158 61.087 43.7163 63.5597 44.9287C66.0877 46.1683 68.8018 46.5467 71.519 44.897L70.481 43.1874C68.5315 44.371 66.579 44.1817 64.4403 43.133C62.2463 42.0572 60.014 40.1491 57.6553 38.1028L56.3447 39.6135ZM71.519 44.897C72.8213 44.1063 74.0699 42.878 75.2625 41.4725C76.4618 40.0591 77.6512 38.4098 78.8204 36.732C81.1924 33.3283 83.4555 29.8581 85.7082 27.5983L84.2918 26.1863C81.8779 28.6077 79.4742 32.2958 77.1796 35.5885C76.0155 37.2588 74.8715 38.8421 73.7375 40.1785C72.5968 41.5229 71.5121 42.5614 70.481 43.1874L71.519 44.897ZM85.7082 27.5983C87.9082 25.3914 90.0394 24.4142 92.1113 24.1821C94.2053 23.9476 96.3541 24.4612 98.5987 25.4445L99.4013 23.6126C96.9792 22.5515 94.4613 21.9064 91.8887 22.1945C89.294 22.4852 86.7584 23.712 84.2918 26.1863L85.7082 27.5983ZM98.5987 25.4445C103.119 27.4249 107.683 31.1486 110.034 33.0708L111.3 31.5225C108.984 29.6289 104.214 25.7211 99.4013 23.6126L98.5987 25.4445ZM110.034 33.0708L112.367 34.9787L113.633 33.4304L111.3 31.5225L110.034 33.0708Z" fill="#FF0000"/>
</svg>
